<svg width="201" height="52" viewBox="0 0 201 52" fill="none" xmlns="http://www.w3.org/2000/svg">
<path d="M65.888 25.624C65.888 23.992 66.264 22.528 67.016 21.232C67.784 19.936 68.816 18.928 70.112 18.208C71.424 17.472 72.856 17.104 74.408 17.104C76.184 17.104 77.76 17.544 79.136 18.424C80.528 19.288 81.536 20.52 82.16 22.12H78.872C78.44 21.24 77.84 20.584 77.072 20.152C76.304 19.72 75.416 19.504 74.408 19.504C73.304 19.504 72.32 19.752 71.456 20.248C70.592 20.744 69.912 21.456 69.416 22.384C68.936 23.312 68.696 24.392 68.696 25.624C68.696 26.856 68.936 27.936 69.416 28.864C69.912 29.792 70.592 30.512 71.456 31.024C72.32 31.52 73.304 31.768 74.408 31.768C75.416 31.768 76.304 31.552 77.072 31.12C77.84 30.688 78.44 30.032 78.872 29.152H82.16C81.536 30.752 80.528 31.984 79.136 32.848C77.76 33.712 76.184 34.144 74.408 34.144C72.84 34.144 71.408 33.784 70.112 33.064C68.816 32.328 67.784 31.312 67.016 30.016C66.264 28.72 65.888 27.256 65.888 25.624ZM88.0985 16.24V34H85.3625V16.24H88.0985ZM97.4266 34.216C96.1786 34.216 95.0506 33.936 94.0426 33.376C93.0346 32.8 92.2426 32 91.6666 30.976C91.0906 29.936 90.8026 28.736 90.8026 27.376C90.8026 26.032 91.0986 24.84 91.6906 23.8C92.2826 22.76 93.0906 21.96 94.1146 21.4C95.1386 20.84 96.2826 20.56 97.5466 20.56C98.8106 20.56 99.9546 20.84 100.979 21.4C102.003 21.96 102.811 22.76 103.403 23.8C103.995 24.84 104.291 26.032 104.291 27.376C104.291 28.72 103.987 29.912 103.379 30.952C102.771 31.992 101.939 32.8 100.883 33.376C99.8426 33.936 98.6906 34.216 97.4266 34.216ZM97.4266 31.84C98.1306 31.84 98.7866 31.672 99.3946 31.336C100.019 31 100.523 30.496 100.907 29.824C101.291 29.152 101.483 28.336 101.483 27.376C101.483 26.416 101.299 25.608 100.931 24.952C100.563 24.28 100.075 23.776 99.4666 23.44C98.8586 23.104 98.2026 22.936 97.4986 22.936C96.7946 22.936 96.1386 23.104 95.5306 23.44C94.9386 23.776 94.4666 24.28 94.1146 24.952C93.7626 25.608 93.5866 26.416 93.5866 27.376C93.5866 28.8 93.9466 29.904 94.6666 30.688C95.4026 31.456 96.3226 31.84 97.4266 31.84ZM118.971 20.776V34H116.235V32.44C115.803 32.984 115.235 33.416 114.531 33.736C113.843 34.04 113.107 34.192 112.323 34.192C111.283 34.192 110.347 33.976 109.515 33.544C108.699 33.112 108.051 32.472 107.571 31.624C107.107 30.776 106.875 29.752 106.875 28.552V20.776H109.587V28.144C109.587 29.328 109.883 30.24 110.475 30.88C111.067 31.504 111.875 31.816 112.899 31.816C113.923 31.816 114.731 31.504 115.323 30.88C115.931 30.24 116.235 29.328 116.235 28.144V20.776H118.971ZM121.669 27.328C121.669 26 121.941 24.824 122.485 23.8C123.045 22.776 123.797 21.984 124.741 21.424C125.701 20.848 126.765 20.56 127.933 20.56C128.797 20.56 129.645 20.752 130.477 21.136C131.325 21.504 131.997 22 132.493 22.624V16.24H135.253V34H132.493V32.008C132.045 32.648 131.421 33.176 130.621 33.592C129.837 34.008 128.933 34.216 127.909 34.216C126.757 34.216 125.701 33.928 124.741 33.352C123.797 32.76 123.045 31.944 122.485 30.904C121.941 29.848 121.669 28.656 121.669 27.328ZM132.493 27.376C132.493 26.464 132.301 25.672 131.917 25C131.549 24.328 131.061 23.816 130.453 23.464C129.845 23.112 129.189 22.936 128.485 22.936C127.781 22.936 127.125 23.112 126.517 23.464C125.909 23.8 125.413 24.304 125.029 24.976C124.661 25.632 124.477 26.416 124.477 27.328C124.477 28.24 124.661 29.04 125.029 29.728C125.413 30.416 125.909 30.944 126.517 31.312C127.141 31.664 127.797 31.84 128.485 31.84C129.189 31.84 129.845 31.664 130.453 31.312C131.061 30.96 131.549 30.448 131.917 29.776C132.301 29.088 132.493 28.288 132.493 27.376ZM153.223 17.32L146.959 34H143.791L137.503 17.32H140.431L145.375 31.192L150.343 17.32H153.223ZM154.599 27.328C154.599 26 154.871 24.824 155.415 23.8C155.975 22.776 156.727 21.984 157.671 21.424C158.631 20.848 159.687 20.56 160.839 20.56C161.879 20.56 162.783 20.768 163.551 21.184C164.335 21.584 164.959 22.088 165.423 22.696V20.776H168.183V34H165.423V32.032C164.959 32.656 164.327 33.176 163.527 33.592C162.727 34.008 161.815 34.216 160.791 34.216C159.655 34.216 158.615 33.928 157.671 33.352C156.727 32.76 155.975 31.944 155.415 30.904C154.871 29.848 154.599 28.656 154.599 27.328ZM165.423 27.376C165.423 26.464 165.231 25.672 164.847 25C164.479 24.328 163.991 23.816 163.383 23.464C162.775 23.112 162.119 22.936 161.415 22.936C160.711 22.936 160.055 23.112 159.447 23.464C158.839 23.8 158.343 24.304 157.959 24.976C157.591 25.632 157.407 26.416 157.407 27.328C157.407 28.24 157.591 29.04 157.959 29.728C158.343 30.416 158.839 30.944 159.447 31.312C160.071 31.664 160.727 31.84 161.415 31.84C162.119 31.84 162.775 31.664 163.383 31.312C163.991 30.96 164.479 30.448 164.847 29.776C165.231 29.088 165.423 28.288 165.423 27.376ZM183.753 20.776V34H181.017V32.44C180.585 32.984 180.017 33.416 179.313 33.736C178.625 34.04 177.889 34.192 177.105 34.192C176.065 34.192 175.129 33.976 174.297 33.544C173.481 33.112 172.833 32.472 172.353 31.624C171.889 30.776 171.657 29.752 171.657 28.552V20.776H174.369V28.144C174.369 29.328 174.665 30.24 175.257 30.88C175.849 31.504 176.657 31.816 177.681 31.816C178.705 31.816 179.513 31.504 180.105 30.88C180.713 30.24 181.017 29.328 181.017 28.144V20.776H183.753ZM190.099 16.24V34H187.363V16.24H190.099ZM196.883 23.008V30.328C196.883 30.824 196.995 31.184 197.219 31.408C197.459 31.616 197.859 31.72 198.419 31.72H200.099V34H197.939C196.707 34 195.763 33.712 195.107 33.136C194.451 32.56 194.123 31.624 194.123 30.328V23.008H192.563V20.776H194.123V17.488H196.883V20.776H200.099V23.008H196.883Z" fill="#FA7275"/>
<rect opacity="0.2" width="48" height="48" rx="24" fill="#FA7275"/>
<rect x="21" y="20" width="32" height="32" rx="16" fill="#FA7275"/>
</svg>
